#!OML:ASF E:\inclinewalkrobotboard\Project 1\Capture day 1\Session 1\subject1.ASF
:FULLY-SPECIFIED
:DEGREES
254
root 10.1912 16.0056 -0.132537 -170.94 5.88138 180.532
lowerback -3.01272 -1.37067 -3.91954
upperback 1.75954 -1.67204 4.70411
thorax 3.78327 -0.941314 7.03098
lowerneck -6.60512 -0.176582 -2.61297
upperneck 25.9618 2.39836 -0.997885
head 9.22057 1.48035 0.454596
rclavicle 6.95746e-015 2.14687e-014
rhumerus -47.2315 -17.7795 -70.2478
rradius 41.7778
rwrist 9.2623
rhand -18.3087 -45.9453
rfingers 7.12502
rthumb 7.97239 -75.775
lclavicle 6.95746e-015 2.14687e-014
lhumerus -24.8374 2.47921 95.0755
lradius 20.3945
lwrist -22.1565
lhand -32.1268 -19.9987
lfingers 7.12502
lthumb -5.37115 9.91321
rfemur -30.4231 3.94868 17.6027
rtibia 24.8814
rfoot -5.45275 2.89296
rtoes -29.1322
lfemur -4.85065 -4.10871 -21.3883
ltibia 44.3553
lfoot -6.71466 5.37676
ltoes -57.3357
255
root 10.288 16.0053 -0.298634 -170.942 6.39366 180.195
lowerback -3.27419 -1.33132 -4.56082
upperback 1.83891 -1.601 4.43176
thorax 4.0153 -0.939164 7.11172
lowerneck -6.42988 0.0784268 -2.54631
upperneck 25.5245 2.64158 -0.902488
head 9.03003 1.59624 0.489036
rclavicle -2.60408e-014 2.54444e-014
rhumerus -46.5816 -18.0391 -70.9058
rradius 40.8346
rwrist 10.2809
rhand -17.8256 -47.0389
rfingers 7.12502
rthumb 8.4386 -76.8503
lclavicle -2.60408e-014 2.54444e-014
lhumerus -25.0525 10.9408 91.287
lradius 16.525
lwrist -29.1862
lhand -35.0198 -20.6122
lfingers 7.12502
lthumb -8.16385 9.21008
rfemur -30.3676 4.57129 17.6945
rtibia 25.9769
rfoot -6.79202 2.8191
rtoes -28.9867
lfemur -5.29 -3.89874 -21.6475
ltibia 46.018
lfoot -5.15147 5.74193
ltoes -55.5499
256
root 10.385 16.0151 -0.457387 -171.051 6.2167 179.593
lowerback -3.43253 -1.53779 -5.42135
upperback 1.89603 -1.84656 4.12556
thorax 4.22486 -1.10175 7.25989
lowerneck -6.5556 0.3549 -2.5035
upperneck 25.4244 2.94717 -0.718187
head 9.01243 1.74981 0.571854
rclavicle -3.02153e-014 -6.44062e-014
rhumerus -46.0913 -18.4778 -71.4049
rradius 39.9614
rwrist 11.4761
rhand -18.0121 -47.0185
rfingers 7.12502
rthumb 8.25862 -76.8371
lclavicle -3.02153e-014 -6.44062e-014
lhumerus -26.1717 23.1859 85.2747
lradius 12.5539
lwrist -40.2831
lhand -36.3543 -20.4388
lfingers 7.12502
lthumb -9.4517 9.32925
rfemur -30.103 4.94318 17.3674
rtibia 26.9531
rfoot -7.87726 2.31299
rtoes -28.1025
lfemur -5.67499 -4.22793 -22.1022
ltibia 47.093
lfoot -2.85542 6.31267
ltoes -55.5919
257
root 10.4695 16.0363 -0.608517 -171.312 5.43002 179.187
lowerback -3.35191 -1.86654 -5.92275
upperback 1.94964 -2.2721 3.89812
thorax 4.31943 -1.3367 7.27215
lowerneck -6.59733 0.625122 -2.41998
upperneck 25.2536 3.23276 -0.539019
head 8.95465 1.8991 0.641867
rclavicle 6.75868e-015 -3.18055e-014
rhumerus -45.8775 -18.9103 -71.7204
rradius 39.305
rwrist 12.3732
rhand -18.4928 -46.6395
rfingers 7.12502
rthumb 7.79474 -76.4758
lclavicle 6.75868e-015 -3.18055e-014
lhumerus -36.5509 49.5049 66.3635
lradius 8.65494
lwrist -68.231
lhand -36.7451 -21.1001
lfingers 7.12502
lthumb -9.82877 8.65051
rfemur -29.4166 4.86278 17.182
rtibia 27.5485
rfoot -8.69459 1.78011
rtoes -27.0156
lfemur -5.88565 -4.95519 -22.3042
ltibia 48.1811
lfoot -0.914763 6.71501
ltoes -54.5761
258
root 10.5542 16.0621 -0.760003 -171.431 4.4774 179.439
lowerback -3.40933 -2.17114 -5.81315
upperback 1.94734 -2.68313 3.92083
thorax 4.41619 -1.54205 7.19709
lowerneck -6.32853 0.868335 -2.448
upperneck 24.8329 3.49777 -0.453284
head 8.75333 2.02446 0.687918
rclavicle 7.15625e-015 2.22639e-014
rhumerus -46.0324 -19.0192 -71.9203
rradius 39.0206
rwrist 12.4715
rhand -18.751 -46.8364
rfingers 7.12502
rthumb 7.54553 -76.6818
lclavicle 7.15625e-015 2.22639e-014
lhumerus -77.9723 68.5097 17.9185
lradius 6.68712
lwrist -96.8838
lhand -36.3849 -19.2504
lfingers 7.12502
lthumb -9.48119 10.5164
rfemur -28.6402 5.16472 17.671
rtibia 27.878
rfoot -9.36848 0.939261
rtoes -25.3846
lfemur -6.07054 -5.47728 -21.5904
ltibia 49.0063
lfoot 0.968491 6.98547
ltoes -54.193
259
root 10.6322 16.0951 -0.910412 -171.376 3.39965 179.934
lowerback -3.58037 -2.41515 -5.35489
upperback 1.83733 -3.02462 4.01323
thorax 4.43448 -1.69519 6.99779
lowerneck -6.42309 1.08534 -2.24381
upperneck 24.7161 3.80962 -0.671359
head 8.73582 2.16414 0.607714
rclavicle 2.20651e-014 -1.43125e-014
rhumerus -46.6261 -19.1283 -71.9193
rradius 39.0268
rwrist 12.1722
rhand -18.6306 -46.9115
rfingers 7.12502
rthumb 7.66174 -76.7527
lclavicle 2.20651e-014 -1.43125e-014
lhumerus -140.378 59.2642 -50.8448
lradius 8.29729
lwrist -126.423
lhand -33.8201 -18.04
lfingers 7.12502
lthumb -7.00589 11.824
rfemur -27.9231 5.47878 18.4377
rtibia 28.0913
rfoot -9.99553 0.00649182
rtoes -23.9405
lfemur -6.35104 -5.83241 -20.4935
ltibia 49.7041
lfoot 2.66586 7.09902
ltoes -53.7002
260
root 10.7026 16.1324 -1.05047 -171.084 2.32817 180.221
lowerback -3.96943 -2.59677 -5.01413
upperback 1.63653 -3.27266 4.0165
thorax 4.46354 -1.80422 6.77127
lowerneck -6.47621 1.21516 -2.16986
upperneck 24.4718 3.96315 -0.755193
head 8.66332 2.22807 0.577072
rclavicle -1.86858e-014 -3.33958e-014
rhumerus -47.3911 -19.3501 -71.7574
rradius 39.0311
rwrist 11.7628
rhand -18.5299 -46.9444
rfingers 7.12502
rthumb 7.75893 -76.782
lclavicle -1.86858e-014 -3.33958e-014
lhumerus -156.748 33.7516 -73.2892
lradius 11.2895
lwrist -156.985
lhand -36.2775 -20.2562
lfingers 7.12502
lthumb -9.37756 9.51522
rfemur -27.46 5.53295 18.9909
rtibia 28.1438
rfoot -10.5693 -0.859012
rtoes -24.0105
lfemur -6.96915 -6.04321 -19.5549
ltibia 50.5902
lfoot 3.73538 7.29345
ltoes -50.4051
